<?xml version="1.0" encoding="UTF-8" standalone="no"?>
<!-- Created with Inkscape (http://www.inkscape.org/) -->

<svg
   width="206.87601mm"
   height="67.325066mm"
   viewBox="0 0 206.87601 67.325066"
   version="1.1"
   id="svg5"
   inkscape:version="1.1.2 (0a00cf5339, 2022-02-04)"
   sodipodi:docname="interface_consonance.svg"
   inkscape:export-filename="/home/scola/ENSEIGNEMENT/S4-DMP400/DMP400/sujets/interface_consonance.png"
   inkscape:export-xdpi="150.00999"
   inkscape:export-ydpi="150.00999"
   xmlns:inkscape="http://www.inkscape.org/namespaces/inkscape"
   xmlns:sodipodi="http://sodipodi.sourceforge.net/DTD/sodipodi-0.dtd"
   xmlns="http://www.w3.org/2000/svg"
   xmlns:svg="http://www.w3.org/2000/svg">
  <sodipodi:namedview
     id="namedview7"
     pagecolor="#ffffff"
     bordercolor="#666666"
     borderopacity="1.0"
     inkscape:pageshadow="2"
     inkscape:pageopacity="0.0"
     inkscape:pagecheckerboard="0"
     inkscape:document-units="mm"
     showgrid="false"
     fit-margin-top="0"
     fit-margin-left="0"
     fit-margin-right="0"
     fit-margin-bottom="0"
     showguides="false"
     inkscape:snap-global="false"
     inkscape:zoom="0.69664705"
     inkscape:cx="399.77202"
     inkscape:cy="129.90796"
     inkscape:window-width="1920"
     inkscape:window-height="978"
     inkscape:window-x="0"
     inkscape:window-y="0"
     inkscape:window-maximized="1"
     inkscape:current-layer="layer1" />
  <defs
     id="defs2" />
  <g
     inkscape:label="Calque 1"
     inkscape:groupmode="layer"
     id="layer1"
     transform="translate(-7.9673383,-84.83671)">
    <path
       style="fill:none;stroke:#ff6600;stroke-width:0.264583px;stroke-linecap:butt;stroke-linejoin:miter;stroke-opacity:1"
       d="m 25.349118,152.03239 c 0.45023,-2.4942 0.14108,-5.18583 0.09569,-7.68492 -0.07286,-4.01166 0.924831,-8.64727 0.120169,-12.58443 -0.127568,-0.62419 -0.479689,-1.18043 -0.719534,-1.77065 0.487602,-0.20127 0.948574,-0.48621 1.462806,-0.60381 2.041573,-0.46692 6.985386,0.21385 9.402903,0.23737 6.037728,0.0587 12.070459,-0.0372 18.108526,0.0861 9.145567,0.18667 18.247923,1.08124 27.39126,1.29516 7.030506,0.16449 14.011901,-0.15318 21.035622,-0.19435 4.32362,-0.0254 8.65369,0.0758 12.97609,-0.043 4.08135,-0.11225 8.19437,-0.3716 12.25657,-0.79891 1.88075,-0.19784 3.75252,-0.4558 5.63684,-0.62607 1.05888,-0.0957 2.87677,-0.45778 4.05313,-0.25888 0.20577,0.0348 0.0192,0.41827 0,0.62607 -0.12059,1.30224 -0.28781,1.80179 -0.28781,3.3462 0,2.24737 0.01,4.77366 0.35976,7.08037 0.62675,4.13202 0.52643,2.00769 0.57563,4.46779"
       id="path1034" />
    <path
       style="fill:none;stroke:#ff6600;stroke-width:0.264583px;stroke-linecap:butt;stroke-linejoin:miter;stroke-opacity:1"
       d="m 25.349118,152.03239 c 3.717033,-0.79199 7.557428,-0.98629 11.344902,-1.42497 5.82785,-0.675 11.619743,-1.37888 17.485426,-1.66235 8.318518,-0.40201 16.653372,0.0548 24.969321,0.17284 9.582446,0.13598 19.175481,-0.0251 28.758373,-0.0645 4.9081,-0.0202 9.82037,0.0641 14.72746,-0.0645 2.56824,-0.0674 5.12918,-0.28114 7.69901,-0.28114 2.59638,0 5.15517,0.26455 7.74724,0.32416 0.53572,0.0123 1.21038,0.38136 1.60745,0.0215 0.17126,-0.1552 -0.41518,-0.20325 -0.62384,-0.30265"
       id="path1036" />
    <path
       style="fill:none;stroke:#ff6600;stroke-width:0.264583px;stroke-linecap:butt;stroke-linejoin:miter;stroke-opacity:1"
       d="m 137.81677,144.60643 c 0.50584,1.35824 0.0758,2.99363 0.33603,4.46845 0.0977,0.55397 0.11632,0.67246 0.12017,0.6691 0.31867,-0.27868 0.52766,-0.66213 0.79149,-0.9932"
       id="path1038" />
    <path
       style="fill:none;stroke:#ff6600;stroke-width:0.264583px;stroke-linecap:butt;stroke-linejoin:miter;stroke-opacity:1"
       d="m 27.38755,147.7367 c -0.823497,-1.89416 0.332494,-3.33625 1.10378,-5.00781 0.367962,-0.79746 0.637646,-1.63402 1.151255,-2.35295 1.359091,-1.90242 3.082301,-3.32619 4.869096,-4.79269 2.681795,-2.20108 4.349818,-3.57351 7.723494,-4.4893 0.931556,-0.25288 1.927307,-0.46216 2.901876,-0.36719 1.637033,0.15952 3.92521,2.90211 4.941049,4.05832 1.580134,1.79848 3.199055,3.46467 4.629499,5.39651 1.732166,2.33932 3.501916,6.195 6.931265,6.25995 1.698832,0.0322 3.53536,-0.45479 5.084956,-1.10082 1.73405,-0.72292 3.430217,-1.53154 4.869095,-2.76316 5.115648,-4.37877 7.641977,-10.93133 15.11096,-11.8508 1.199833,-0.14771 2.413908,-0.29165 3.597672,0.0215 2.225432,0.58873 7.348458,4.59811 8.827275,6.28146 0.843526,0.96019 1.637828,2.01682 2.398198,3.04356 1.91125,2.58078 3.76933,6.50696 7.14787,7.5551 6.16634,1.91302 15.64816,-3.73958 19.62029,-8.28873 2.11196,-2.41876 3.63168,-5.72105 6.5715,-7.25321"
       id="path1068" />
    <path
       style="fill:none;stroke:#ff6600;stroke-width:0.264583px;stroke-linecap:butt;stroke-linejoin:miter;stroke-opacity:1"
       d="m 136.64178,122.1354 c -2.9347,0.7852 -6.14461,0.56678 -9.16256,0.64758 -5.88961,0.15765 -11.76263,0.21268 -17.65307,0.043 -6.5121,-0.18758 -13.012026,-0.70953 -19.524602,-0.84193 -12.417331,-0.25245 -24.814084,0.3485 -37.225141,0.56153 -5.44622,0.0935 -10.891135,0.0641 -16.33417,0.30191 -1.709282,0.0747 -5.972249,0.0281 -7.651542,0.51851 -0.794314,0.23197 -1.535006,0.61865 -2.302509,0.92798 0.227897,-1.02435 0.02603,-2.14753 0.143907,-3.19488 0.775592,-6.8911 -0.0051,-13.75827 -0.647581,-20.6358 0.655493,0.0935 1.30621,0.23089 1.96648,0.2804 1.451354,0.10881 2.910124,-0.0673 4.365421,-0.0868 3.605481,-0.0483 7.211585,-0.10756 10.817493,-0.10756 11.129055,0 22.26288,-0.20394 33.387873,0.12981 5.838347,0.17515 11.646368,0.80602 17.485424,0.94949 7.634327,0.18758 15.273677,-0.1394 22.906407,0.10756 4.72565,0.1529 9.4542,0.19825 14.17557,0.47548 1.72179,0.1011 3.43206,0.17706 5.15691,0.21586 0.31971,0.007 0.63965,0.007 0.95913,0.0215 0.22459,0.01 0.83905,-0.0851 0.67132,0.0645 -0.16571,0.14786 -0.37984,0.10138 -0.50368,0.32416 -1.35466,2.437 -1.09272,9.90428 -1.24694,12.95162 -0.12699,2.50918 -0.73457,4.77727 -0.50368,7.29548"
       id="path1070" />
    <path
       style="fill:none;stroke:#ff6600;stroke-width:0.264583px;stroke-linecap:butt;stroke-linejoin:miter;stroke-opacity:1"
       d="m 26.788186,124.29398 c 0.239845,-1.48234 0.511202,-2.95993 0.719535,-4.44702 0.09977,-0.71215 -0.141603,-1.51438 -0.09569,-2.24465 0.074,-1.177 0.373295,-2.17976 0.623102,-3.30244 0.566335,-2.54523 1.014158,-4.41217 2.614803,-6.54109 0.903642,-1.20188 2.009462,-2.8032 3.669625,-2.97828 0.576114,-0.0607 1.373989,-0.005 1.798833,0.43173 1.692638,1.74126 2.48988,9.12284 3.142216,11.89382 0.189177,0.80359 1.306986,3.6232 2.590323,2.41749 3.77593,-3.54755 1.64075,-10.51855 5.205124,-14.52718 0.380241,-0.42763 1.597795,-1.94457 2.374464,-1.77064 0.182946,0.041 1.013925,2.28895 1.103037,2.63409 0.643035,2.49051 1.690135,4.75536 2.566588,7.16641 0.503216,1.3843 1.296681,5.05765 2.134865,6.02257 0.362307,0.41709 0.941078,0.3887 1.439068,0.3887 1.256562,0 2.120366,-0.6987 2.950091,-1.59781 0.534639,-0.57935 1.206643,-1.3252 1.535502,-2.0503 0.632251,-1.39406 0.457094,-3.02974 0.503674,-4.51156 0.04431,-1.40967 0.328636,-3.15202 0.74327,-4.51155 0.26612,-0.87258 1.598954,-2.81646 2.806184,-2.22388 0.528328,0.25933 0.627576,1.27804 0.863441,1.74914 1.029872,2.05697 1.449597,4.45478 1.895269,6.71318 0.358261,1.81546 -0.286946,4.92092 1.223206,6.28146 0.210269,0.18943 0.97931,0.073 1.199472,0.043 2.878548,-0.39154 3.824774,-1.3956 5.204383,-3.92851 0.610402,-1.12068 1.327301,-2.29557 1.726883,-3.51904 0.914429,-2.79987 0.832075,-6.52387 3.741579,-8.20269 0.04629,-0.0267 0.979474,-0.62386 1.247685,-0.60382 0.07306,0.005 0.824563,2.78934 0.911658,3.10809 0.345179,1.26328 0.520161,2.56099 0.863442,3.82095 0.309602,1.13635 0.699145,2.22409 0.910915,3.38849 0.143206,0.78741 0.347324,1.56425 0.479936,2.35295 0.306236,1.8213 0.298429,4.2521 2.590324,4.66288 3.65697,0.65545 6.74199,-6.06968 7.771712,-8.65592 0.408077,-1.02493 0.512037,-2.14288 0.838961,-3.19488 0.234239,-0.75376 0.963724,-3.7747 2.255036,-3.41074 1.935528,0.54553 1.537318,3.774 1.847048,5.22367 0.57086,2.67187 1.2602,5.30717 1.79884,7.98757 0.14076,0.70049 0.56502,2.44302 1.4628,2.56807 1.89552,0.26402 4.57527,-0.71257 5.85271,-2.11484 0.55478,-0.60899 0.87689,-1.42968 1.3189,-2.11558 1.11072,-1.72359 2.07537,-3.30654 2.73423,-5.26743 0.50914,-1.51532 0.88643,-3.58282 2.03917,-4.74893 0.25551,-0.25847 3.16368,-2.7214 3.54946,-2.59032 0.59069,0.2007 0.81502,2.44813 0.86344,2.84995 0.31028,2.57497 0.51858,5.16522 0.74401,7.74871 0.0577,0.66119 0.004,1.4036 0.16765,2.05105 0.31912,1.26397 1.1822,3.82812 2.54284,4.29569 3.76947,1.29533 5.85992,-11.67395 7.57885,-13.83657 0.78374,-0.98603 2.16564,-2.91527 3.5502,-1.55404"
       id="path1072" />
    <path
       style="fill:none;stroke:#ff6600;stroke-width:0.264583px;stroke-linecap:butt;stroke-linejoin:miter;stroke-opacity:1"
       d="m 148.8746,101.67167 c 0.024,0.43172 0.0175,0.86623 0.072,1.29516 0.12496,0.98343 0.44102,1.91215 0.52742,2.91449 0.30088,3.49067 -0.006,7.01579 0.16764,10.51187 0.0616,1.23814 0.24697,2.44742 0.26408,3.69188 0.0109,0.7904 -0.007,3.74953 0,3.75567 0.11928,0.10822 0.26684,-0.18128 0.40798,-0.25888 0.60858,-0.33461 0.86459,-0.3993 1.65493,-0.54002 1.21334,-0.21604 2.51518,-0.21586 3.74158,-0.21586 8.98265,0 17.94677,0.75789 26.9358,0.54002 0.27991,-0.007 0.55981,-0.0139 0.8397,-0.0215 1.7621,-0.0479 3.51249,-0.1083 5.27634,-0.1083 0.33573,0 1.02466,0.0501 1.05556,-0.0215 0.38408,-0.89053 -0.0842,-2.50785 -0.0719,-3.43226 0.0272,-2.05437 0.49054,-4.17265 0.74327,-6.21692 0.32499,-2.62877 0.66035,-5.2523 0.98361,-7.87853 0.18391,-1.49406 0.8452,-5.39111 0.12017,-6.69167 -0.0684,-0.122679 -1.47894,0.308642 -1.60745,0.323422 -2.22756,0.25614 -4.56963,0.335772 -6.81184,0.367183 -4.53933,0.06359 -9.05683,-0.56583 -13.5992,-0.388697 -3.62755,0.14146 -7.23174,0.539713 -10.84197,0.841932 -3.05548,0.25578 -6.17095,0.36038 -9.1863,0.97174 -0.28576,0.0579 -0.44726,0.3742 -0.67132,0.56079 z"
       id="path1076" />
    <path
       style="fill:none;stroke:#ff6600;stroke-width:0.264583px;stroke-linecap:butt;stroke-linejoin:miter;stroke-opacity:1"
       d="m 155.59001,121.76819 c 0.13431,0.7584 0.0755,1.53163 0.21586,2.28841 0.008,0.0454 0.041,0.17541 0.0482,0.12982 0.0808,-0.51232 -0.26407,-4.50142 -0.26407,-2.41823 0,0.5315 0.30477,1.04871 0.24033,1.5763"
       id="path1078" />
    <path
       style="fill:none;stroke:#ff6600;stroke-width:0.264583px;stroke-linecap:butt;stroke-linejoin:miter;stroke-opacity:1"
       d="m 153.0479,129.3233 c 1.05027,-0.40815 0.94216,-0.27437 1.75062,-0.88496 0.5332,-0.4027 0.77898,-0.6475 1.22321,-1.14383 0.0609,-0.068 0.11014,-0.28611 0.16838,-0.21586 0.19807,0.2389 -0.0406,1.1105 0.0957,1.468 0.10301,0.27013 0.76906,0.47824 0.55189,0.66909 -0.18252,0.1604 -1.75373,0.38516 -1.36711,0.53928 0.74095,0.29536 2.03757,-0.40432 2.61406,-0.81968"
       id="path1080" />
    <path
       style="fill:none;stroke:#ff6600;stroke-width:0.264583px;stroke-linecap:butt;stroke-linejoin:miter;stroke-opacity:1"
       d="m 184.9967,122.39426 c -0.0341,0.61846 -0.0245,1.23771 -0.0245,1.85669"
       id="path1082" />
    <path
       style="fill:none;stroke:#ff6600;stroke-width:0.264583px;stroke-linecap:butt;stroke-linejoin:miter;stroke-opacity:1"
       d="m 185.11613,128.50362 c -3.4091,-1.21315 0.34075,-2.39086 0.62384,-1.20911 0.25463,1.06292 -2.33672,2.76092 -3.04578,1.96425 -0.0342,-0.0384 0.87115,0.74739 1.05483,0.84193 1.18489,0.6099 2.81468,-0.0678 3.81427,-0.6906"
       id="path1084" />
    <path
       style="fill:none;stroke:#ff6600;stroke-width:0.264583px;stroke-linecap:butt;stroke-linejoin:miter;stroke-opacity:1"
       d="m 154.55892,100.00932 c 0.20737,1.01484 0.1113,0.54705 0.28782,1.40347"
       id="path1086" />
    <path
       style="fill:none;stroke:#ff6600;stroke-width:0.264583px;stroke-linecap:butt;stroke-linejoin:miter;stroke-opacity:1"
       d="m 184.30091,99.577603 c 0.30568,0.580767 0.77597,1.075547 1.03182,1.683857"
       id="path1106" />
    <path
       style="fill:none;stroke:#ff6600;stroke-width:0.264583px;stroke-linecap:butt;stroke-linejoin:miter;stroke-opacity:1"
       d="m 189.88954,123.45205 c 0.4557,-0.17259 0.89787,-0.38635 1.36711,-0.51777 1.30761,-0.36622 2.85139,-0.13724 4.19778,-0.25889 0.16546,-0.0149 1.30078,-0.23811 0.98287,-0.23811"
       id="path1132" />
    <path
       style="fill:none;stroke:#ff6600;stroke-width:0.264583px;stroke-linecap:butt;stroke-linejoin:miter;stroke-opacity:1"
       d="m 196.4373,122.43728 c -0.89509,-1.15125 -0.89509,-1.15125 0,0"
       id="path1134" />
    <path
       style="fill:none;stroke:#ff6600;stroke-width:0.264583px;stroke-linecap:butt;stroke-linejoin:miter;stroke-opacity:1"
       d="m 196.4373,122.43728 c -0.57563,-0.3165 -1.14659,-0.64163 -1.72688,-0.94949 -0.26857,-0.14248 0.52507,0.30676 0.79148,0.45323 0.3093,0.17006 0.73839,0.2034 0.9354,0.49626 0.72246,1.07399 -0.0444,1.30564 -0.64758,1.81367 -0.11503,0.0969 -0.38586,0.44355 -0.33529,0.30191 0.26147,-0.7323 0.65524,-1.41039 0.98287,-2.11558"
       id="path1136" />
    <path
       style="fill:none;stroke:#ff6600;stroke-width:0.264583px;stroke-linecap:butt;stroke-linejoin:miter;stroke-opacity:1"
       d="m 209.34218,115.55201 c -0.68075,2.03079 -0.37617,1.2046 -1.19947,3.30244 -1.20563,3.07203 -2.48715,6.12949 -3.59767,9.23896 -0.25572,0.71603 -0.76917,2.39417 -0.9354,2.97828 -0.10958,0.38507 -0.18219,1.55227 -0.28781,1.16609 -0.0783,-0.28616 0.1298,-0.57952 0.21586,-0.86344"
       id="path1140" />
    <path
       style="fill:none;stroke:#ff6600;stroke-width:0.264583px;stroke-linecap:butt;stroke-linejoin:miter;stroke-opacity:1"
       d="m 8.0313373,112.5945 c 2.2444447,-1.24064 6.3685407,-5.14494 5.7807527,-8.05211 -0.04798,-0.2373 -0.483131,0.19784 -0.599364,0.41021 -0.699544,1.27815 -0.709046,2.51681 -0.791488,4.03681 -0.131848,2.4309 0.0088,4.98959 0.695055,7.33925 0.07583,0.25961 1.152259,2.90605 0.744013,2.89297 -1.086225,-0.0348 -4.6219568,-2.26295 -3.454506,-3.6266 0.577646,-0.67473 1.686337,-1.1399 2.447158,-1.55405"
       id="path1146" />
    <path
       style="fill:none;stroke:#ff6600;stroke-width:0.264583px;stroke-linecap:butt;stroke-linejoin:miter;stroke-opacity:1"
       d="m 12.612619,141.41147 c 1.845154,-2.40052 3.514716,-4.92282 3.430027,-8.07288 -0.0015,-0.0542 -0.134393,-1.11231 -0.455457,-1.23062 -0.281421,-0.1037 -0.481783,0.61424 -0.575628,1.70537 -0.287424,3.34187 0.02465,7.94758 0.695056,11.24625 0.125163,0.61586 0.429333,1.18131 0.64758,1.77064 0.04702,0.12696 0.21171,0.4877 0.12017,0.38796 -0.994851,-1.08397 -3.771086,-3.39269 -3.693362,-3.62586 0.07607,-0.2282 2.133113,-1.13349 2.51837,-1.36044"
       id="path1148" />
    <path
       style="fill:none;stroke:#ff6600;stroke-width:0.264583px;stroke-linecap:butt;stroke-linejoin:miter;stroke-opacity:1"
       d="m 18.393372,147.28347 c 0.215861,-0.30958 0.444194,-0.61081 0.647581,-0.92872 1.371477,-2.1437 0.450981,-1.2399 1.367115,0.9072"
       id="path1154" />
    <path
       style="fill:none;stroke:#ff6600;stroke-width:0.264583px;stroke-linecap:butt;stroke-linejoin:miter;stroke-opacity:1"
       d="m 16.54632,116.76038 c 0.255917,-0.18693 0.45372,-0.51812 0.767751,-0.56079 0.730024,-0.0992 -1.382149,2.85501 1.271424,2.33069 0.336631,-0.0665 0.477011,-0.14201 0.743272,-0.3019"
       id="path1156" />
    <path
       style="fill:none;stroke:#ff6600;stroke-width:0.264583px;stroke-linecap:butt;stroke-linejoin:miter;stroke-opacity:1"
       d="m 207.87864,129.58292 c 0.88375,-0.23742 3.74341,-4.21258 2.97456,-4.74892 -0.93942,-0.65534 -1.64089,3.96951 -1.63119,4.40325 0.0285,1.27192 1.05272,4.98309 0.79149,6.00106 -0.0378,0.14745 -0.45476,-0.11301 -1.67941,-0.97174 -0.41575,-0.29153 -1.35048,-0.89653 -1.3189,-1.03627 0.0613,-0.27132 1.78826,-0.89491 2.06292,-1.05705"
       id="path1351" />
    <path
       style="fill:none;stroke:#ff6600;stroke-width:0.264583px;stroke-linecap:butt;stroke-linejoin:miter;stroke-opacity:1"
       d="m 212.96359,133.16576 c 1.61283,-2.10944 1.23654,-2.07513 1.75136,0"
       id="path1357" />
    <path
       style="fill:none;stroke:#ff6600;stroke-width:0.264583px;stroke-linecap:butt;stroke-linejoin:miter;stroke-opacity:1"
       d="m 199.72341,119.07031 c 0.37585,-0.30957 0.77639,-0.59138 1.12752,-0.92872 2.20257,-2.11605 3.16731,-4.87106 3.19043,-7.85702 0.004,-0.54 -0.0119,-1.08053 -0.0482,-1.61932 -0.0139,-0.20616 -0.13495,-0.72209 -0.26408,-0.56079 -0.76806,0.95941 -0.77199,2.33845 -1.03109,3.53981 -0.65305,3.0281 -1.08287,6.12274 -1.2232,9.21746 -0.0629,1.38669 -0.0167,2.7403 0.0957,4.12286 0.0152,0.18724 0.19246,0.68189 0.0482,0.56153 -0.79742,-0.6654 -1.13063,-2.02327 -1.65493,-2.89297 -0.20969,-0.34784 -0.77546,-0.9567 -0.71953,-1.05779 0.0771,-0.13933 2.05998,-0.84195 2.11039,-0.86344"
       id="path1554" />
    <path
       style="fill:none;stroke:#ff6600;stroke-width:0.264583px;stroke-linecap:butt;stroke-linejoin:miter;stroke-opacity:1"
       d="m 203.34483,121.83347 c -0.5941,-1.60993 1.05802,-0.94864 0.95987,0.19361 -0.15927,1.8537 -2.4165,2.97085 1.51102,2.30993"
       id="path1556" />
    <path
       style="fill:none;stroke:#ff6600;stroke-width:0.264583px;stroke-linecap:butt;stroke-linejoin:miter;stroke-opacity:1"
       d="m 151.20085,137.67731 c -0.0319,0.55412 -0.0832,1.10746 -0.0957,1.66235 -0.0598,2.65672 0.0482,5.35071 0.0482,8.00834 0,0.17278 -0.013,-0.34537 -0.0245,-0.51777"
       id="path1739" />
    <path
       style="fill:none;stroke:#ff6600;stroke-width:0.264583px;stroke-linecap:butt;stroke-linejoin:miter;stroke-opacity:1"
       d="m 151.20085,137.67731 c 0.37584,-0.69085 0.63678,-1.45797 1.12751,-2.07255 0.1097,-0.13738 0.35164,0.003 0.52742,0 1.07275,-0.0189 2.14584,-0.0974 3.21416,-0.19361 3.42013,-0.30793 6.83527,-0.19936 10.26561,-0.17284 2.88992,0.0224 5.77069,-0.32914 8.65889,-0.38869 2.29787,-0.0474 4.54515,0.2356 6.83631,0.32342 0.62855,0.0241 5.17536,0.14597 5.32456,0.34567 0.14279,0.19113 -0.0608,0.4738 -0.072,0.71212 -0.0467,0.99897 -0.075,2.05331 -0.0237,3.0443 0.14752,2.85456 0.98287,5.62068 0.98287,8.50459 0,0.29142 0.035,0.62007 0,0.90647 -0.0199,0.16301 -0.29927,-0.14028 -0.43172,-0.23738 -0.45718,-0.33515 -0.83292,-0.63793 -1.41459,-0.75514 -1.20809,-0.24341 -2.54039,-0.18077 -3.76606,-0.15132 -4.93791,0.11864 -9.8636,0.74689 -14.79941,0.94949 -3.21224,0.13185 -6.43214,0.35041 -9.64176,0.0215 -0.75492,-0.0774 -1.41715,-0.4535 -2.1586,-0.56079 -0.50504,-0.0731 -3.38581,0.0369 -3.43003,0 -0.43384,-0.36245 -0.84764,-0.74822 -1.27147,-1.12233"
       id="path1741" />
    <path
       style="fill:none;stroke:#ff6600;stroke-width:0.264583px;stroke-linecap:butt;stroke-linejoin:miter;stroke-opacity:1"
       d="m 161.5384,138.86492 c -1.58791,1.99187 -2.2777,4.67529 -3.90922,6.62639"
       id="path1743" />
    <path
       style="fill:none;stroke:#ff6600;stroke-width:0.264583px;stroke-linecap:butt;stroke-linejoin:miter;stroke-opacity:1"
       d="m 157.43706,138.77813 c 1.34243,1.62358 1.80973,4.1573 3.74158,5.26743"
       id="path1745" />
    <path
       style="fill:none;stroke:#ff6600;stroke-width:0.264583px;stroke-linecap:butt;stroke-linejoin:miter;stroke-opacity:1"
       d="m 168.92661,137.37541 c -0.86477,1.68709 -1.9036,6.58963 -3.40629,7.40378"
       id="path1747" />
    <path
       style="fill:none;stroke:#ff6600;stroke-width:0.264583px;stroke-linecap:butt;stroke-linejoin:miter;stroke-opacity:1"
       d="m 161.5384,138.86492 c 6.77692,1.37173 4.21629,1.38648 7.98757,5.22367"
       id="path1749" />
    <path
       style="fill:none;stroke:#ff6600;stroke-width:0.264583px;stroke-linecap:butt;stroke-linejoin:miter;stroke-opacity:1"
       d="m 177.08109,138.36792 c -1.56027,1.78715 -1.96063,4.25318 -3.23791,6.21692"
       id="path1755" />
    <path
       style="fill:none;stroke:#ff6600;stroke-width:0.264583px;stroke-linecap:butt;stroke-linejoin:miter;stroke-opacity:1"
       d="m 172.88405,139.10229 c 0.35161,0.23737 0.72323,0.4475 1.05482,0.71211 0.8707,0.69483 1.60417,1.63337 2.44716,2.37447 0.64437,0.56648 1.41575,0.94931 2.03843,1.51102"
       id="path1759" />
    <path
       style="fill:none;stroke:#ff6600;stroke-width:0.264583px;stroke-linecap:butt;stroke-linejoin:miter;stroke-opacity:1"
       d="m 192.09636,138.7351 c 0.20485,-1.9039 -0.25475,-1.3645 0,0 0.10261,0.54965 0.41626,1.03961 0.57562,1.57556 0.12071,0.40596 0.53604,3.65248 0.38351,3.7349 -0.24343,0.13154 -0.31167,-1.0669 -0.28782,-1.16609 0.16586,-0.68966 1.16525,-0.70814 1.6312,-1.16535 0.67723,-0.66454 1.20714,-1.73769 1.48728,-2.63334 0.18754,-0.59961 0.28688,-1.20701 0.31155,-1.83519 0.008,-0.20152 0.008,-0.80364 -0.0237,-0.60455 -0.27096,1.675 0.18123,5.03466 0.50367,6.25994"
       id="path1761" />
    <path
       style="fill:none;stroke:#ff6600;stroke-width:0.264583px;stroke-linecap:butt;stroke-linejoin:miter;stroke-opacity:1"
       d="m 196.67767,142.90098 c 1.31122,-0.28781 2.60624,-0.66322 3.93367,-0.86344 0.13829,-0.0208 0.24162,0.14102 0.35977,0.21586 1.23166,0.7802 -0.68168,1.6097 -0.072,2.936 0.34874,0.75859 2.78001,2.32943 1.84631,2.97902 -0.48875,0.34003 -3.3478,1.62212 -3.93296,1.468 -0.38471,-0.10133 -0.46434,-0.76708 -0.38424,-1.03628 0.40329,-1.35539 2.50157,-1.56265 3.59767,-1.79216"
       id="path1763" />
    <path
       style="fill:none;stroke:#ff6600;stroke-width:0.264583px;stroke-linecap:butt;stroke-linejoin:miter;stroke-opacity:1"
       d="m 53.691885,90.924653 c 0,0.489594 0,-0.529305 0,-0.583045 0,-1.198038 0.392196,-3.248894 -0.21586,-4.338717 -0.210585,-0.37743 -0.864248,-0.02121 -1.295903,-0.04302 -1.812972,-0.0916 -3.560067,-0.873386 -5.324553,-0.410209 0.431636,1.763234 0.52362,4.304469 0.43172,5.763692 2.092798,0.133083 4.508938,0.63385 6.404596,-0.388701 z"
       id="path1775" />
    <path
       style="fill:none;stroke:#ff6600;stroke-width:0.264583px;stroke-linecap:butt;stroke-linejoin:miter;stroke-opacity:1"
       d="m 50.573409,88.031684 c -1.318652,-0.451198 -1.564476,0.670634 -1.031087,1.533276 0.06085,0.09841 0.01611,0.276295 0.143907,0.344931 0.481904,0.2588 1.781194,-0.333059 1.606714,-0.971 -0.101825,-0.372296 -0.468421,-0.614096 -0.719534,-0.907207 z"
       id="path1777" />
    <path
       style="fill:none;stroke:#ff6600;stroke-width:0.264583px;stroke-linecap:butt;stroke-linejoin:miter;stroke-opacity:1"
       d="m 59.352469,86.8018 c -0.417288,1.461424 -0.328094,2.954694 -0.168386,4.446276 0.01797,0.167797 0.125875,0.663165 0.09643,0.496999 -0.139993,-0.790036 -0.4831,-1.521687 -0.863441,-2.22388 -0.14859,-0.274328 -0.882031,-1.209118 -0.936138,-1.554046 -0.07422,-0.473157 1.297284,-0.655156 1.871533,-1.165349 0.311372,-0.276642 0.591796,-1.755691 1.414589,-1.014766 1.36615,1.230222 0.98361,4.149256 0.98361,5.763692"
       id="path1926" />
    <path
       style="fill:none;stroke:#ff6600;stroke-width:0.264583px;stroke-linecap:butt;stroke-linejoin:miter;stroke-opacity:1"
       d="m 64.317253,86.58594 c -0.04005,0.43172 -0.08011,0.863441 -0.120168,1.295161 -0.0319,0.409962 -0.05846,0.820373 -0.09569,1.229885 -0.107246,1.179711 -0.155276,1.146775 -0.192122,2.352951 -0.0045,0.147739 0.03049,0.463418 0.168386,0.410208 0.47834,-0.184573 1.07645,-1.217145 1.174991,-1.381208 0.665271,-1.107619 0.959506,-2.415802 0.983612,-3.691137 0.0039,-0.208652 0.15571,-0.487126 0,-0.626069 -0.106312,-0.09486 -0.102198,0.268864 -0.120171,0.410209 -0.190489,1.498173 -0.01344,2.659674 0.359767,4.101345"
       id="path1928" />
    <path
       style="fill:none;stroke:#ff6600;stroke-width:0.264583px;stroke-linecap:butt;stroke-linejoin:miter;stroke-opacity:1"
       d="m 70.409557,86.930871 c -0.0304,1.402098 0.239834,2.809623 0.167645,4.209646"
       id="path1930" />
    <path
       style="fill:none;stroke:#ff6600;stroke-width:0.264583px;stroke-linecap:butt;stroke-linejoin:miter;stroke-opacity:1"
       d="m 68.298431,86.996149 c 1.068824,-0.514457 2.80798,-1.237803 3.694102,-1.338928"
       id="path1932" />
    <path
       style="fill:none;stroke:#ff6600;stroke-width:0.264583px;stroke-linecap:butt;stroke-linejoin:miter;stroke-opacity:1"
       d="m 73.959014,86.844824 c -0.02172,1.116454 -2.139797,5.6885 0.744013,3.906997"
       id="path1934" />
    <path
       style="fill:none;stroke:#ff6600;stroke-width:0.264583px;stroke-linecap:butt;stroke-linejoin:miter;stroke-opacity:1"
       d="m 72.591898,89.176263 c 0.539486,-0.521711 2.394498,-0.376385 2.614803,-1.16609"
       id="path1936" />
    <path
       style="fill:none;stroke:#ff6600;stroke-width:0.264583px;stroke-linecap:butt;stroke-linejoin:miter;stroke-opacity:1"
       d="m 73.263959,85.830058 c 0.211307,-0.269962 2.42616,-0.799576 2.757966,-0.863441"
       id="path1938" />
    <path
       style="fill:none;stroke:#ff6600;stroke-width:0.264583px;stroke-linecap:butt;stroke-linejoin:miter;stroke-opacity:1"
       d="m 151.09679,95.393187 c 0.0404,0.295631 -0.009,3.225837 0.79149,3.172627 1.33072,-0.08841 1.6423,-2.804622 1.36711,-3.798696 -0.0545,-0.19691 -0.36487,0.292005 -0.35976,0.496256 0.0202,0.807979 0.54777,1.57807 1.05556,2.158603"
       id="path3126" />
    <path
       style="fill:none;stroke:#ff6600;stroke-width:0.264583px;stroke-linecap:butt;stroke-linejoin:miter;stroke-opacity:1"
       d="m 154.62251,94.184073 c 0.44889,0.344558 -0.002,1.707158 0.31155,2.266904 0.0749,0.13366 0.0551,-0.301693 0.072,-0.453974 0.0756,-0.681892 0.32677,-1.371584 0.57562,-2.007279 0.075,-0.191593 0.22546,-0.691281 0.33603,-0.517767 0.248,0.389161 -0.0462,1.647562 0.57563,1.812929 0.51847,0.137883 0.71029,-1.252475 0.76775,-1.511022 0.0728,-0.327534 0.16764,-1.328036 0.16764,-0.992512 0,0.686942 0.1039,1.858663 1.05557,1.554046"
       id="path3128" />
    <path
       style="fill:none;stroke:#ff6600;stroke-width:0.264583px;stroke-linecap:butt;stroke-linejoin:miter;stroke-opacity:1"
       d="m 158.67638,94.939955 c 0.25921,-1.052896 0.0826,-0.514488 0.50368,-1.511022 0.13916,-0.329344 0.54913,-1.999595 0.71953,-2.159345 0.0735,-0.06891 1.42593,2.150076 1.41459,2.159345 -0.20028,0.163708 -0.57405,0.126548 -0.81523,0.150583 0.38375,-0.446062 0.81011,-0.858757 1.15126,-1.338185 0.50063,-0.703542 0.31469,-1.794264 0.31155,-1.791418 -0.54143,0.490669 2.3196,2.611835 0.50368,2.611835"
       id="path3130" />
    <path
       style="fill:none;stroke:#ff6600;stroke-width:0.264583px;stroke-linecap:butt;stroke-linejoin:miter;stroke-opacity:1"
       d="m 163.85703,91.162029 c 0.46108,1.415852 2.8481,-0.658135 2.11038,-1.511022 -0.51293,-0.593005 -2.0318,-0.20763 -2.1586,0.604557 -0.0467,0.298961 0.0322,0.60431 0.0482,0.906465 z"
       id="path3132" />
    <path
       style="fill:none;stroke:#ff6600;stroke-width:0.264583px;stroke-linecap:butt;stroke-linejoin:miter;stroke-opacity:1"
       d="m 166.47109,87.599964 c -0.008,0.295231 -0.0382,0.590711 -0.0237,0.885695 0.10314,2.104352 0.93245,-0.626069 1.4628,-0.626069 0.2478,0 0.53645,0.488946 0.67206,0.64758"
       id="path3134" />
    <path
       style="fill:none;stroke:#ff6600;stroke-width:0.264583px;stroke-linecap:butt;stroke-linejoin:miter;stroke-opacity:1"
       d="m 156.97323,91.377889 c 0.16222,-0.391719 0.36084,-0.766449 0.5519,-1.143837"
       id="path3164" />
    <path
       style="fill:none;stroke:#ff6600;stroke-width:0.264583px;stroke-linecap:butt;stroke-linejoin:miter;stroke-opacity:1"
       d="m 184.58035,95.090538 c -0.17006,0.459546 -0.53893,0.867236 -0.31155,1.338185 0.31344,0.649186 1.00655,0.08177 1.27069,-0.258884 1.30522,-1.683328 0.30045,-3.913499 -0.6231,-1.964254 -0.13511,0.285147 -0.22402,0.589968 -0.33604,0.884953 z"
       id="path3486" />
    <path
       style="fill:none;stroke:#ff6600;stroke-width:0.264583px;stroke-linecap:butt;stroke-linejoin:miter;stroke-opacity:1"
       d="m 187.38654,92.284354 c -1.77402,3.057068 0.48319,2.287215 1.87079,0.712858"
       id="path3488" />
    <path
       style="fill:none;stroke:#ff6600;stroke-width:0.264583px;stroke-linecap:butt;stroke-linejoin:miter;stroke-opacity:1"
       d="m 188.53779,87.233521 c 1.08909,1.652177 1.69336,3.570144 2.03918,5.504065"
       id="path3490" />
    <path
       style="fill:none;stroke:#ff6600;stroke-width:0.264583px;stroke-linecap:butt;stroke-linejoin:miter;stroke-opacity:1"
       d="m 188.39389,88.960403 c 0.87855,-0.301681 1.55484,-0.926539 2.20681,-1.554046"
       id="path3492" />
    <path
       style="fill:none;stroke:#ff6600;stroke-width:0.264583px;stroke-linecap:butt;stroke-linejoin:miter;stroke-opacity:1"
       d="m 192.97517,89.607983 c -0.59076,-0.233104 -0.65073,-0.484749 -1.0793,-0.129812 -0.34468,0.285455 -1.37218,1.850964 -0.50368,2.008019 1.05251,0.190329 0.73308,-1.680645 1.58298,-1.878207 0.51016,-0.118589 1.03949,0.129566 1.55924,0.194349"
       id="path3494" />
    <path
       style="fill:none;stroke:#ff6600;stroke-width:0.264583px;stroke-linecap:butt;stroke-linejoin:miter;stroke-opacity:1"
       d="m 193.91056,87.643729 c 0.3118,0.38845 0.62792,0.773472 0.9354,1.165349 1.38461,1.764667 0.33561,-0.727344 1.24769,-2.158603"
       id="path3496" />
    <path
       style="fill:none;stroke:#ff6600;stroke-width:0.264583px;stroke-linecap:butt;stroke-linejoin:miter;stroke-opacity:1"
       d="m 197.74857,87.082196 c 2.30332,-1.595058 -0.70142,-1.192172 0,0 1.04552,1.777022 2.02884,0.92838 3.30986,0.08605"
       id="path3498" />
  </g>
</svg>
